<?xml version="1.0" encoding="utf-8"?>
<!-- Generator: Adobe Illustrator 26.5.0, SVG Export Plug-In . SVG Version: 6.00 Build 0)  -->
<svg version="1.1" id="EasySign-Logo" xmlns="http://www.w3.org/2000/svg" xmlns:xlink="http://www.w3.org/1999/xlink" x="0px"
	 y="0px" viewBox="0 0 306 63.7" style="enable-background:new 0 0 306 63.7;" xml:space="preserve">
<style type="text/css">
	.st0{fill:#105D30;}
	.st1{fill:#D4DC28;}
	.st2{fill:#3E9745;}
	.st3{fill:#A5C939;}
	.st4{fill:#3D3A35;}
</style>
<g id="Logo-Icon">
	<path class="st0" d="M58.2,0h-0.7l0.3,0.3L58.2,0z"/>
	<path class="st1" d="M28.8,0h-0.6l0.3,0.3L28.8,0z"/>
	<path class="st2" d="M0,30.5v-1.7 M28.5,29.7L13.8,15L0,28.8v1.7l13.8,13.8L28.5,29.7z M0.2,58h27.3L13.8,44.3L0.2,58z M1.5,2.7
		L13.8,15L28.5,0.3L28.2,0H7C4.8,0,2.8,1,1.5,2.7z"/>
	<path class="st3" d="M57.8,29.7L43.2,44.3L28.6,29.7L43.2,15L57.8,29.7z M29.5,58h27.3L43.2,44.3L29.5,58z M43.2,15L57.8,0.3
		L57.5,0H28.8l-0.3,0.3L43.2,15z"/>
	<path class="st1" d="M29.5,58h-2 M28.5,29.7L13.8,44.3L27.5,58h2l13.7-13.7L28.5,29.7z M28.5,0.3l14.6,14.6L28.5,29.6L13.9,14.9
		L28.5,0.3z"/>
	<path class="st0" d="M58.8,58h-2 M57.8,29.7L43.2,44.3L56.8,58h2l13.7-13.7L57.8,29.7z M57.9,0.3L72.5,15L57.9,29.6L43.2,15
		L57.9,0.3z"/>
	<path class="st2" d="M72.5,15l6.2-6.2V0H58.2l-0.4,0.3L72.5,15z M72.5,15L57.8,29.7l14.7,14.6l6.2-6.1v-17L72.5,15z M58.8,58h12.8
		c3.9,0,7-3.1,7-7v-0.5l-6.2-6.2L58.8,58z"/>
	<path class="st3" d="M78.7,8.8L72.5,15l6.2,6.2V8.8z M78.7,50.5V38.2l-6.2,6.1L78.7,50.5z"/>
	<path class="st0" d="M1.5,2.7C0.6,3.9,0,5.4,0,7v21.8L13.8,15L1.5,2.7z M0,30.5V58h0.2l13.6-13.7L0,30.5z"/>
	<path class="st2" d="M57.8,29.7L43.2,44.3L56.8,58h1V44.3V29.7z M57.8,15V0.3L43.2,15l14.6,14.7L57.8,15z"/>
	<path class="st3" d="M28.5,29.7L13.8,44.4L27.5,58h1V44.4V29.7z"/>
	<path class="st1" d="M28.5,0.4L43.1,15L28.5,29.6L13.8,15L28.5,0.4z"/>
	<path class="st3" d="M28.5,15V0.3L13.8,15l14.7,14.7V15z"/>
</g>
<path class="st4" d="M91.1,45.3V9h25.5v3.9H95.1v11.9H116v3.7H95.1v13.1h21.5v3.8L91.1,45.3L91.1,45.3z M139.6,42.6
	c-0.6,1.1-1.5,1.9-2.8,2.3c-1.3,0.5-3,0.7-5.3,0.7c-4,0-6.7-0.6-8.1-1.7s-2.1-3.3-2.1-6.4c0-1.8,0.2-3.2,0.5-4.2s0.8-1.8,1.6-2.5
	c0.6-0.5,1.5-0.9,2.7-1.1s2.9-0.3,5.2-0.3s4.1,0.2,5.3,0.6s2.2,1,2.8,1.9v-4.4c0-2.1-0.4-3.5-1.2-4.1s-2.9-0.9-6.1-0.9
	c-2.4,0-4,0.2-4.7,0.7c-0.8,0.5-1.2,1.4-1.2,2.8h-3.8v-0.6c0-2.2,0.7-3.8,2.1-4.7s3.9-1.4,7.4-1.4c2.7,0,4.8,0.1,6.2,0.3
	c1.4,0.2,2.5,0.6,3.1,1.1c0.7,0.6,1.3,1.3,1.6,2.2c0.3,0.9,0.5,2.3,0.5,4.4v18h-3.5L139.6,42.6L139.6,42.6z M139.4,38.8v-2.7
	c0-1.2-0.6-2.1-1.9-2.7s-3.2-0.9-5.9-0.9c-2.5,0-4.2,0.3-5,0.9c-0.8,0.6-1.3,1.8-1.3,3.6c0,2,0.4,3.4,1.3,4c0.9,0.7,2.7,1,5.3,1
	c2.4,0,4.2-0.3,5.5-0.9C138.7,40.7,139.4,39.9,139.4,38.8L139.4,38.8z M149.9,37.7h3.9v0.6c0,1.6,0.5,2.7,1.5,3.3s2.9,0.9,5.9,0.9
	c3.3,0,5.3-0.3,6.1-0.9c0.8-0.6,1.1-1.8,1.1-3.5s-0.3-2.8-0.9-3.4c-0.6-0.6-2.2-0.9-4.7-1c-0.9,0-2.2-0.1-3.8-0.1
	c-3.5-0.1-5.5-0.3-6.2-0.7c-1-0.5-1.7-1.3-2.1-2.2c-0.4-0.9-0.6-2.3-0.6-4c0-2.8,0.7-4.8,2.2-5.8c1.4-1,4.6-1.5,9.6-1.5
	c3.8,0,6.4,0.5,7.8,1.4c1.4,1,2,2.6,2,5.1h-3.8v-0.2c0-1.1-0.5-1.9-1.5-2.4c-1-0.4-2.9-0.6-5.9-0.6c-2.8,0-4.6,0.3-5.4,0.8
	c-0.8,0.5-1.2,1.6-1.2,3.3c0,1,0.1,1.7,0.2,2.1c0.1,0.4,0.4,0.7,0.8,0.9c0.8,0.4,2.5,0.6,5.1,0.7h1.5c2.1,0.1,3.8,0.2,5.1,0.3
	c1.2,0.1,2.1,0.3,2.6,0.6c1.1,0.5,1.9,1.3,2.4,2.2s0.7,2.4,0.7,4.2c0,1.9-0.2,3.3-0.7,4.3s-1.3,1.8-2.5,2.6
	c-0.6,0.4-1.5,0.6-2.7,0.8c-1.3,0.2-3,0.2-5.2,0.2c-4.6,0-7.6-0.5-9-1.6c-1.5-1-2.2-3-2.2-5.7v-0.7L149.9,37.7z M177.2,19.6h3.8
	l7.6,22.1l7.6-22.1h3.8l-9.7,28c-1.1,3-2.1,5.1-3.2,6.2s-2.6,1.6-4.4,1.6h-0.9c0,0-0.7-0.1-1.1-0.1V52h1.1c1.2,0,2.1-0.3,2.7-0.8
	s1.2-1.6,1.8-3.1l1-2.7h-1.1L177.2,19.6L177.2,19.6z M203.8,33.5h4.1v0.7c0,2.2,0.2,3.8,0.5,4.8s0.9,1.8,1.6,2.2
	c0.6,0.3,1.5,0.6,2.7,0.7c1.2,0.1,3.7,0.2,7.5,0.2c2.1,0,3.7-0.1,4.8-0.4c1.1-0.3,2-0.7,2.5-1.3c0.3-0.3,0.5-0.9,0.7-1.7
	s0.2-1.8,0.2-3.2c0-2.7-0.3-4.4-0.8-5.1s-1.6-1.1-3.2-1.2l-11.2-0.9c-3.4-0.3-5.7-1.1-7-2.5s-1.9-3.8-1.9-7.2c0-2.1,0.2-3.8,0.6-5.1
	c0.4-1.3,1.1-2.4,2.1-3.2c0.7-0.7,1.8-1.1,3.1-1.4s3.6-0.4,7-0.4h1.3c3.7,0,6.4,0.2,7.9,0.5c1.5,0.4,2.8,1,3.8,1.9
	c0.7,0.6,1.2,1.4,1.5,2.5s0.5,2.4,0.5,4v1.8H228v-0.9c0-1.3-0.1-2.4-0.2-3.1s-0.4-1.2-0.7-1.6c-0.5-0.5-1.4-0.9-2.7-1.1
	c-1.3-0.2-3.7-0.3-7.4-0.3s-6.1,0.4-7.1,1.3c-1,0.8-1.4,2.5-1.4,5.1c0,2.1,0.3,3.5,0.9,4.3c0.6,0.8,1.8,1.3,3.6,1.4l11.4,1
	c3,0.3,5.1,1.1,6.3,2.5s1.8,3.7,1.8,7c0,2.4-0.2,4.2-0.5,5.4s-0.8,2.2-1.5,3c-0.9,1-2.1,1.7-3.6,2.1s-4.2,0.6-8.1,0.6H217
	c-3.4,0-5.7-0.2-7.1-0.5s-2.6-0.9-3.5-1.8c-0.9-0.8-1.6-1.8-2-3.2s-0.6-3-0.6-5.1L203.8,33.5L203.8,33.5z M240,13.3V9h3.8v4.3H240z
	 M240,45.3V19.6h3.8v25.7C243.8,45.3,240,45.3,240,45.3z M273.2,19.6V45c0,3.8-0.7,6.4-2.2,7.9s-4.1,2.2-7.8,2.2h-1.8
	c-3.4,0-5.8-0.6-7.3-1.8s-2.4-3.2-2.6-6.1h3.9c0.2,1.6,0.7,2.8,1.5,3.4c0.9,0.6,2.4,1,4.6,1h1.7c2.2,0,3.8-0.4,4.8-1.1
	c1-0.7,1.4-1.9,1.4-3.6v-5.3c-0.7,1.4-1.7,2.4-2.9,3.1c-1.2,0.6-2.9,0.9-5.1,0.9c-3.7,0-6.2-0.8-7.7-2.3s-2.2-4.1-2.2-7.9v-6.1
	c0-3.7,0.7-6.4,2.2-7.9s4.1-2.3,7.7-2.3c2.2,0,4,0.4,5.3,1c1.3,0.7,2.3,1.8,2.9,3.3v-4h3.6V19.6z M269.4,34.6v-4.2
	c0-2.7-0.6-4.6-1.9-5.8c-1.2-1.2-3.2-1.8-6-1.8c-2.5,0-4.2,0.5-5,1.4s-1.3,3-1.3,6.2v4.4c0,3.2,0.4,5.3,1.3,6.2
	c0.9,0.9,2.5,1.4,5,1.4c2.8,0,4.8-0.6,6-1.8C268.8,39.2,269.4,37.3,269.4,34.6z M281.1,45.3V19.6h3.6v3.5c0.6-1.3,1.6-2.3,3-2.9
	s3.2-0.9,5.4-0.9c3.4,0,5.7,0.7,7.1,2c1.4,1.4,2,3.7,2,7.2v16.8h-3.8v-16c0-2.7-0.4-4.5-1.2-5.3c-0.8-0.8-2.3-1.3-4.6-1.3
	c-2.7,0-4.7,0.6-5.9,1.8c-1.2,1.2-1.9,3.2-1.9,5.8v14.9h-3.7V45.3z"/>
<g>
	<path d="M95.5,58.2c-0.3,0.1-0.9,0.3-1.6,0.3c-1.7,0-3-1.1-3-3s1.3-3.1,3.1-3.1c0.7,0,1.2,0.2,1.4,0.3l-0.2,0.6
		C95,53.1,94.6,53,94.1,53c-1.4,0-2.3,0.9-2.3,2.5c0,1.5,0.8,2.4,2.3,2.4c0.5,0,1-0.1,1.3-0.2L95.5,58.2z"/>
	<path d="M101.4,55.4c0,2.1-1.3,3.2-2.8,3.2c-1.6,0-2.7-1.2-2.7-3c0-1.9,1.2-3.1,2.8-3.1C100.3,52.3,101.4,53.6,101.4,55.4z
		 M96.7,55.5c0,1.3,0.7,2.4,1.9,2.4c1.2,0,1.9-1.1,1.9-2.5c0-1.2-0.6-2.4-1.9-2.4C97.3,53,96.7,54.1,96.7,55.5z"/>
	<path d="M107.4,55.8c0-0.8-0.1-1.8-0.1-2.6l0,0c-0.2,0.7-0.5,1.5-0.8,2.3l-1.1,2.9h-0.6l-1-2.9c-0.3-0.8-0.5-1.6-0.7-2.3l0,0
		c0,0.7-0.1,1.8-0.1,2.7l-0.2,2.6h-0.7l0.4-6h1l1,2.9c0.2,0.7,0.5,1.4,0.6,2l0,0c0.2-0.6,0.4-1.3,0.6-2l1.1-2.9h1l0.4,6h-0.8
		L107.4,55.8z"/>
	<path d="M110.3,52.4V56c0,1.3,0.6,1.9,1.4,1.9c0.9,0,1.5-0.6,1.5-1.9v-3.5h0.8V56c0,1.8-1,2.6-2.3,2.6c-1.2,0-2.2-0.7-2.2-2.6v-3.5
		L110.3,52.4L110.3,52.4z"/>
	<path d="M115.3,58.4v-6h0.8l1.9,3c0.4,0.7,0.8,1.3,1.1,1.9l0,0c-0.1-0.8-0.1-1.5-0.1-2.5v-2.5h0.7v6H119l-1.9-3
		c-0.4-0.7-0.8-1.4-1.1-2l0,0c0,0.8,0.1,1.5,0.1,2.5v2.6H115.3z"/>
	<path d="M121.9,52.4v6h-0.8v-6H121.9z"/>
	<path d="M127.5,58.2c-0.3,0.1-0.9,0.3-1.6,0.3c-1.7,0-3-1.1-3-3s1.3-3.1,3.1-3.1c0.7,0,1.2,0.2,1.4,0.3l-0.2,0.6
		c-0.3-0.1-0.7-0.2-1.2-0.2c-1.4,0-2.3,0.9-2.3,2.5c0,1.5,0.8,2.4,2.3,2.4c0.5,0,1-0.1,1.3-0.2L127.5,58.2z"/>
	<path d="M129.4,56.5l-0.6,1.9H128l2-6h0.9l2,6h-0.8l-0.6-1.9H129.4z M131.4,55.9l-0.6-1.7c-0.1-0.4-0.2-0.7-0.3-1.1l0,0
		c-0.1,0.4-0.2,0.7-0.3,1.1l-0.6,1.7H131.4z"/>
	<path d="M138,58.2c-0.3,0.1-0.8,0.3-1.6,0.3l-0.2,0.4c0.3,0.1,0.6,0.3,0.6,0.7c0,0.5-0.5,0.7-0.9,0.7c-0.2,0-0.5-0.1-0.6-0.2
		l0.1-0.4c0.1,0.1,0.3,0.1,0.5,0.1s0.4-0.1,0.4-0.3s-0.3-0.3-0.7-0.4l0.4-0.7c-1.5-0.2-2.5-1.2-2.5-3c0-1.9,1.3-3.1,3.1-3.1
		c0.7,0,1.2,0.2,1.4,0.3l-0.2,0.6c-0.3-0.1-0.7-0.2-1.2-0.2c-1.4,0-2.3,0.9-2.3,2.5c0,1.5,0.8,2.4,2.3,2.4c0.5,0,1-0.1,1.3-0.2
		L138,58.2z"/>
	<path d="M139.9,56.5l-0.6,1.9h-0.8l2-6h0.9l2,6h-0.8l-0.6-1.9H139.9z M139.9,52.1c0-0.5,0.2-0.9,0.6-0.9c0.2,0,0.3,0.1,0.5,0.2
		c0.1,0.1,0.3,0.2,0.4,0.2c0.1,0,0.2-0.1,0.2-0.3h0.4c0,0.6-0.2,0.9-0.6,0.9c-0.2,0-0.3-0.1-0.5-0.2c-0.2-0.1-0.3-0.2-0.4-0.2
		c-0.1,0-0.2,0.2-0.2,0.4h-0.4V52.1z M141.9,55.9l-0.6-1.7c-0.1-0.4-0.2-0.7-0.3-1.1l0,0c-0.1,0.4-0.2,0.7-0.3,1.1l-0.6,1.7H141.9z"
		/>
	<path d="M149.4,55.4c0,2.1-1.3,3.2-2.8,3.2c-1.6,0-2.7-1.2-2.7-3c0-1.9,1.2-3.1,2.8-3.1C148.4,52.3,149.4,53.6,149.4,55.4z
		 M144.8,55.5c0,1.3,0.7,2.4,1.9,2.4s1.9-1.1,1.9-2.5c0-1.2-0.6-2.4-1.9-2.4C145.4,53,144.8,54.1,144.8,55.5z"/>
	<path d="M153.3,58.4l-2-6h0.8l0.9,3c0.3,0.8,0.5,1.5,0.6,2.2l0,0c0.2-0.7,0.4-1.5,0.7-2.2l1-3h0.8l-2.1,6H153.3z"/>
	<path d="M157.7,52.4v6h-0.8v-6H157.7z"/>
	<path d="M159,57.5c0.3,0.2,0.9,0.4,1.4,0.4c0.8,0,1.3-0.4,1.3-1s-0.3-0.9-1.1-1.2c-1-0.3-1.6-0.9-1.6-1.7c0-0.9,0.8-1.6,1.9-1.6
		c0.6,0,1.1,0.1,1.3,0.3l-0.2,0.6c-0.2-0.1-0.6-0.3-1.1-0.3c-0.8,0-1.1,0.5-1.1,0.9c0,0.6,0.4,0.8,1.2,1.2c1,0.4,1.5,0.9,1.5,1.8
		c0,0.9-0.7,1.7-2.1,1.7c-0.6,0-1.2-0.2-1.5-0.4L159,57.5z"/>
	<path d="M164.2,52.4V56c0,1.3,0.6,1.9,1.4,1.9c0.9,0,1.5-0.6,1.5-1.9v-3.5h0.8V56c0,1.8-1,2.6-2.3,2.6c-1.2,0-2.2-0.7-2.2-2.6v-3.5
		L164.2,52.4L164.2,52.4z"/>
	<path d="M169.9,56.5l-0.6,1.9h-0.8l2-6h0.9l2,6h-0.8l-0.6-1.9H169.9z M171.9,55.9l-0.6-1.7c-0.1-0.4-0.2-0.7-0.3-1.1l0,0
		c-0.1,0.4-0.2,0.7-0.3,1.1l-0.6,1.7H171.9z"/>
	<path d="M174.4,52.4h0.8v5.3h2.6v0.6h-3.3v-5.9H174.4z"/>
</g>
</svg>
